<?xml version="1.0" standalone="no"?>
<!DOCTYPE svg PUBLIC "-//W3C//DTD SVG 1.1//EN" "http://www.w3.org/Graphics/SVG/1.1/DTD/svg11.dtd">
<svg class="icon" width="12" height="12" viewBox="0 0 1024 1024" version="1.1" xmlns="http://www.w3.org/2000/svg">
    <path fill="#CED0D6" d="M652.501333 780.501333a42.666667 42.666667 0 0 0 0 60.330667l85.333334 85.333333a42.666667 42.666667 0 0 0 60.330666-60.330666L785.664 853.333333H938.666667a42.666667 42.666667 0 1 0 0-85.333333h-153.002667l12.501333-12.501333a42.666667 42.666667 0 0 0-60.330666-60.330667l-85.333334 85.333333z" />
    <path fill="#CED0D6" d="M384 469.333333a85.333333 85.333333 0 1 0 0-170.666666 85.333333 85.333333 0 0 0 0 170.666666zM636.16 555.221333a21.333333 21.333333 0 0 1 10.112-0.213333c0.426667 0.085333 2.901333 0.64 13.738667 7.424a42.666667 42.666667 0 1 0 45.312-72.32c-11.818667-7.424-24.789333-14.933333-40.533334-18.432a106.666667 106.666667 0 0 0-50.645333 1.066667c-18.986667 5.077333-35.413333 16.896-51.84 28.629333l-3.968 2.858667-106.88 76.330666c-20.48 14.592-22.997333 15.786667-24.746667 16.298667a21.333333 21.333333 0 0 1-9.045333 0.768c-1.792-0.256-4.48-0.981333-27.093333-11.946667l-22.528-11.008-3.541334-1.706666c-14.890667-7.253333-29.866667-14.592-46.08-17.066667a106.666667 106.666667 0 0 0-42.666666 2.133333c-15.914667 4.096-30.08 12.885333-44.117334 21.632l-3.370666 2.090667-80.042667 49.493333a42.666667 42.666667 0 0 0 44.885333 72.533334l80.042667-49.493334c19.84-12.245333 22.229333-13.184 23.893333-13.610666a21.333333 21.333333 0 0 1 8.533334-0.426667c1.706667 0.256 4.138667 0.938667 25.130666 11.178667l22.528 10.965333 3.84 1.877333c15.957333 7.808 32 15.658667 49.450667 17.92a106.666667 106.666667 0 0 0 45.226667-3.754666c16.810667-5.162667 31.36-15.573333 45.824-25.941334l3.413333-2.474666 106.922667-76.373334c23.338667-16.64 26.282667-17.92 28.245333-18.432z" />
    <path fill="#CED0D6" d="M441.898667 128h140.202666c46.250667 0 83.541333 0 113.749334 2.474667 31.104 2.56 58.410667 7.893333 83.669333 20.778666a213.333333 213.333333 0 0 1 93.226667 93.226667c12.885333 25.258667 18.261333 52.608 20.778666 83.669333C896 358.4 896 395.648 896 441.898667V554.666667a42.666667 42.666667 0 1 1-85.333333 0v-110.933334c0-48.512 0-82.304-2.176-108.629333-2.133333-25.813333-6.058667-40.661333-11.776-51.882667a128 128 0 0 0-55.936-55.936c-11.221333-5.717333-26.069333-9.642667-51.882667-11.776C662.570667 213.376 628.736 213.333333 580.266667 213.333333h-136.533334c-48.512 0-82.304 0-108.629333 2.176-25.813333 2.133333-40.661333 6.058667-51.882667 11.776a128 128 0 0 0-55.936 55.936c-5.717333 11.221333-9.642667 26.069333-11.776 51.882667C213.376 361.429333 213.333333 395.264 213.333333 443.733333v136.533334c0 48.512 0 82.304 2.176 108.629333 2.133333 25.813333 6.058667 40.661333 11.776 51.882667a128 128 0 0 0 55.936 55.936c11.221333 5.717333 26.069333 9.642667 51.882667 11.776 26.325333 2.133333 60.16 2.176 108.629333 2.176H512a42.666667 42.666667 0 1 1 0 85.333333h-70.101333c-46.250667 0-83.541333 0-113.749334-2.474667-31.061333-2.56-58.410667-7.893333-83.626666-20.778666a213.333333 213.333333 0 0 1-93.269334-93.226667c-12.885333-25.258667-18.261333-52.565333-20.778666-83.669333C128 665.6 128 628.352 128 582.101333v-140.202666c0-46.250667 0-83.541333 2.474667-113.749334 2.56-31.061333 7.893333-58.410667 20.778666-83.626666A213.333333 213.333333 0 0 1 244.48 151.210667c25.258667-12.885333 52.608-18.261333 83.669333-20.778667C358.4 128 395.648 128 441.898667 128z" />
</svg>